<svg xmlns="http://www.w3.org/2000/svg" xmlns:xlink="http://www.w3.org/1999/xlink" width="500" zoomAndPan="magnify" viewBox="0 0 375 374.999991" height="500" preserveAspectRatio="xMidYMid meet" version="1.0"><defs><clipPath id="dc355ffb1a"><path d="M 2.40625 2.40625 L 372.90625 2.40625 L 372.90625 372.90625 L 2.40625 372.90625 Z M 2.40625 2.40625 " clip-rule="nonzero"/></clipPath></defs><g clip-path="url(#dc355ffb1a)"><path fill="#2aa79b" d="M 372.90625 187.65625 C 372.90625 190.6875 372.832031 193.71875 372.683594 196.746094 C 372.535156 199.773438 372.3125 202.796875 372.015625 205.816406 C 371.71875 208.832031 371.347656 211.839844 370.902344 214.839844 C 370.457031 217.839844 369.9375 220.824219 369.347656 223.796875 C 368.757812 226.769531 368.09375 229.730469 367.355469 232.667969 C 366.617188 235.609375 365.8125 238.53125 364.929688 241.433594 C 364.050781 244.332031 363.101562 247.210938 362.078125 250.066406 C 361.058594 252.921875 359.964844 255.75 358.804688 258.550781 C 357.644531 261.351562 356.417969 264.121094 355.121094 266.863281 C 353.824219 269.601562 352.460938 272.308594 351.035156 274.984375 C 349.605469 277.65625 348.109375 280.292969 346.550781 282.894531 C 344.992188 285.496094 343.371094 288.054688 341.6875 290.578125 C 340.003906 293.097656 338.257812 295.574219 336.453125 298.011719 C 334.644531 300.445312 332.78125 302.835938 330.859375 305.179688 C 328.933594 307.523438 326.953125 309.816406 324.917969 312.0625 C 322.882812 314.308594 320.792969 316.503906 318.648438 318.648438 C 316.503906 320.792969 314.308594 322.882812 312.0625 324.917969 C 309.816406 326.953125 307.523438 328.933594 305.179688 330.859375 C 302.835938 332.78125 300.445312 334.644531 298.011719 336.453125 C 295.574219 338.257812 293.097656 340.003906 290.578125 341.6875 C 288.054688 343.371094 285.496094 344.992188 282.894531 346.550781 C 280.292969 348.109375 277.65625 349.605469 274.984375 351.035156 C 272.308594 352.460938 269.601562 353.824219 266.863281 355.121094 C 264.121094 356.417969 261.351562 357.644531 258.550781 358.804688 C 255.75 359.964844 252.921875 361.058594 250.066406 362.078125 C 247.210938 363.101562 244.332031 364.050781 241.433594 364.929688 C 238.53125 365.8125 235.609375 366.617188 232.667969 367.355469 C 229.730469 368.09375 226.769531 368.757812 223.796875 369.347656 C 220.824219 369.9375 217.839844 370.457031 214.839844 370.902344 C 211.839844 371.347656 208.832031 371.71875 205.816406 372.015625 C 202.796875 372.3125 199.773438 372.535156 196.746094 372.683594 C 193.71875 372.832031 190.6875 372.90625 187.65625 372.90625 C 184.625 372.90625 181.597656 372.832031 178.566406 372.683594 C 175.539062 372.535156 172.515625 372.3125 169.5 372.015625 C 166.484375 371.71875 163.472656 371.347656 160.476562 370.902344 C 157.476562 370.457031 154.492188 369.9375 151.515625 369.347656 C 148.542969 368.757812 145.585938 368.09375 142.644531 367.355469 C 139.703125 366.617188 136.785156 365.8125 133.882812 364.929688 C 130.980469 364.050781 128.101562 363.101562 125.25 362.078125 C 122.394531 361.058594 119.566406 359.964844 116.765625 358.804688 C 113.964844 357.644531 111.195312 356.417969 108.453125 355.121094 C 105.710938 353.824219 103.003906 352.460938 100.332031 351.035156 C 97.65625 349.605469 95.019531 348.109375 92.421875 346.550781 C 89.820312 344.992188 87.257812 343.371094 84.738281 341.6875 C 82.21875 340.003906 79.738281 338.257812 77.304688 336.453125 C 74.867188 334.644531 72.480469 332.78125 70.136719 330.859375 C 67.792969 328.933594 65.496094 326.953125 63.25 324.917969 C 61.003906 322.882812 58.808594 320.792969 56.664062 318.648438 C 54.523438 316.503906 52.433594 314.308594 50.394531 312.0625 C 48.359375 309.816406 46.378906 307.523438 44.457031 305.179688 C 42.535156 302.835938 40.667969 300.445312 38.863281 298.011719 C 37.058594 295.574219 35.3125 293.097656 33.628906 290.578125 C 31.945312 288.054688 30.320312 285.496094 28.761719 282.894531 C 27.203125 280.292969 25.710938 277.65625 24.28125 274.984375 C 22.851562 272.308594 21.488281 269.601562 20.195312 266.863281 C 18.898438 264.121094 17.667969 261.351562 16.507812 258.550781 C 15.347656 255.75 14.257812 252.921875 13.238281 250.066406 C 12.214844 247.210938 11.265625 244.332031 10.382812 241.433594 C 9.503906 238.53125 8.695312 235.609375 7.960938 232.667969 C 7.222656 229.730469 6.558594 226.769531 5.96875 223.796875 C 5.375 220.824219 4.855469 217.839844 4.414062 214.839844 C 3.96875 211.839844 3.597656 208.832031 3.300781 205.816406 C 3.003906 202.796875 2.78125 199.773438 2.628906 196.746094 C 2.480469 193.71875 2.40625 190.6875 2.40625 187.65625 C 2.40625 184.625 2.480469 181.597656 2.628906 178.566406 C 2.78125 175.539062 3.003906 172.515625 3.300781 169.5 C 3.597656 166.484375 3.96875 163.472656 4.414062 160.476562 C 4.855469 157.476562 5.375 154.492188 5.96875 151.515625 C 6.558594 148.542969 7.222656 145.585938 7.960938 142.644531 C 8.695312 139.703125 9.503906 136.785156 10.382812 133.882812 C 11.265625 130.980469 12.214844 128.101562 13.238281 125.25 C 14.257812 122.394531 15.347656 119.566406 16.507812 116.765625 C 17.667969 113.964844 18.898438 111.195312 20.195312 108.453125 C 21.488281 105.710938 22.851562 103.003906 24.28125 100.332031 C 25.710938 97.65625 27.203125 95.019531 28.761719 92.421875 C 30.320312 89.820312 31.945312 87.257812 33.628906 84.738281 C 35.3125 82.21875 37.058594 79.738281 38.863281 77.304688 C 40.667969 74.867188 42.535156 72.480469 44.457031 70.136719 C 46.378906 67.792969 48.359375 65.496094 50.394531 63.25 C 52.433594 61.003906 54.523438 58.808594 56.664062 56.664062 C 58.808594 54.523438 61.003906 52.433594 63.25 50.394531 C 65.496094 48.359375 67.792969 46.378906 70.136719 44.457031 C 72.480469 42.535156 74.867188 40.667969 77.304688 38.863281 C 79.738281 37.058594 82.21875 35.3125 84.738281 33.628906 C 87.257812 31.945312 89.820312 30.320312 92.421875 28.761719 C 95.019531 27.203125 97.65625 25.710938 100.332031 24.28125 C 103.003906 22.851562 105.710938 21.488281 108.453125 20.195312 C 111.195312 18.898438 113.964844 17.667969 116.765625 16.507812 C 119.566406 15.347656 122.394531 14.257812 125.25 13.238281 C 128.101562 12.214844 130.980469 11.265625 133.882812 10.382812 C 136.785156 9.503906 139.703125 8.695312 142.644531 7.960938 C 145.585938 7.222656 148.542969 6.558594 151.515625 5.96875 C 154.492188 5.375 157.476562 4.855469 160.476562 4.414062 C 163.472656 3.96875 166.484375 3.597656 169.5 3.300781 C 172.515625 3.003906 175.539062 2.78125 178.566406 2.628906 C 181.597656 2.480469 184.625 2.40625 187.65625 2.40625 C 190.6875 2.40625 193.71875 2.480469 196.746094 2.628906 C 199.773438 2.78125 202.796875 3.003906 205.816406 3.300781 C 208.832031 3.597656 211.839844 3.96875 214.839844 4.414062 C 217.839844 4.855469 220.824219 5.375 223.796875 5.96875 C 226.769531 6.558594 229.730469 7.222656 232.667969 7.960938 C 235.609375 8.695312 238.53125 9.503906 241.433594 10.382812 C 244.332031 11.265625 247.210938 12.214844 250.066406 13.238281 C 252.921875 14.257812 255.75 15.347656 258.550781 16.507812 C 261.351562 17.667969 264.121094 18.898438 266.863281 20.195312 C 269.601562 21.488281 272.308594 22.851562 274.984375 24.28125 C 277.65625 25.710938 280.292969 27.203125 282.894531 28.761719 C 285.496094 30.320312 288.054688 31.945312 290.578125 33.628906 C 293.097656 35.3125 295.574219 37.058594 298.011719 38.863281 C 300.445312 40.667969 302.835938 42.535156 305.179688 44.457031 C 307.523438 46.378906 309.816406 48.359375 312.0625 50.394531 C 314.308594 52.433594 316.503906 54.523438 318.648438 56.664062 C 320.792969 58.808594 322.882812 61.003906 324.917969 63.25 C 326.953125 65.496094 328.933594 67.792969 330.859375 70.136719 C 332.78125 72.480469 334.644531 74.867188 336.453125 77.304688 C 338.257812 79.738281 340.003906 82.21875 341.6875 84.738281 C 343.371094 87.257812 344.992188 89.820312 346.550781 92.421875 C 348.109375 95.019531 349.605469 97.65625 351.035156 100.332031 C 352.460938 103.003906 353.824219 105.710938 355.121094 108.453125 C 356.417969 111.195312 357.644531 113.964844 358.804688 116.765625 C 359.964844 119.566406 361.058594 122.394531 362.078125 125.25 C 363.101562 128.101562 364.050781 130.980469 364.929688 133.882812 C 365.8125 136.785156 366.617188 139.703125 367.355469 142.644531 C 368.09375 145.585938 368.757812 148.542969 369.347656 151.515625 C 369.9375 154.492188 370.457031 157.476562 370.902344 160.476562 C 371.347656 163.472656 371.71875 166.484375 372.015625 169.5 C 372.3125 172.515625 372.535156 175.539062 372.683594 178.566406 C 372.832031 181.597656 372.90625 184.625 372.90625 187.65625 Z M 372.90625 187.65625 " fill-opacity="1" fill-rule="nonzero"/></g><path fill="#ffffff" d="M 314.554688 207.664062 C 310.847656 207.664062 308.070312 204.515625 308.070312 200.808594 L 308.070312 176.355469 C 308.070312 172.652344 310.847656 169.503906 314.554688 169.503906 C 318.257812 169.503906 321.039062 172.652344 321.039062 176.355469 L 321.039062 200.996094 C 321.039062 204.699219 318.257812 207.664062 314.554688 207.664062 Z M 314.554688 207.664062 " fill-opacity="1" fill-rule="nonzero"/><path fill="#ffffff" d="M 77.433594 207.664062 C 73.730469 207.664062 70.949219 204.515625 70.949219 200.808594 L 70.949219 176.355469 C 70.949219 172.652344 73.730469 169.503906 77.433594 169.503906 C 81.140625 169.503906 83.917969 172.652344 83.917969 176.355469 L 83.917969 200.996094 C 83.917969 204.699219 81.140625 207.664062 77.433594 207.664062 Z M 77.433594 207.664062 " fill-opacity="1" fill-rule="nonzero"/><path fill="#ffffff" d="M 129.304688 285.65625 C 125.414062 285.65625 122.820312 281.949219 122.820312 277.503906 L 122.820312 99.664062 C 122.820312 95.21875 125.414062 91.511719 129.304688 91.511719 C 133.195312 91.511719 135.789062 95.21875 135.789062 99.664062 L 135.789062 277.6875 C 135.789062 282.136719 133.007812 285.65625 129.304688 285.65625 Z M 129.304688 285.65625 " fill-opacity="1" fill-rule="nonzero"/><path fill="#ffffff" d="M 101.515625 242.121094 C 97.625 242.121094 95.03125 238.972656 95.03125 235.265625 L 95.03125 142.085938 C 95.03125 138.195312 97.625 135.230469 101.515625 135.230469 C 105.40625 135.230469 108 138.382812 108 142.085938 L 108 235.265625 C 108 238.972656 105.222656 242.121094 101.515625 242.121094 Z M 101.515625 242.121094 " fill-opacity="1" fill-rule="nonzero"/><path fill="#ffffff" d="M 156.164062 242.121094 C 152.273438 242.121094 148.753906 238.972656 148.753906 235.265625 L 148.753906 142.085938 C 148.753906 138.195312 152.273438 135.230469 156.164062 135.230469 C 160.054688 135.230469 163.574219 138.382812 163.574219 142.085938 L 163.574219 235.265625 C 163.574219 238.972656 159.871094 242.121094 156.164062 242.121094 Z M 156.164062 242.121094 " fill-opacity="1" fill-rule="nonzero"/><path fill="#ffffff" d="M 208.035156 242.121094 C 204.144531 242.121094 200.625 238.972656 200.625 235.265625 L 200.625 142.085938 C 200.625 138.195312 204.144531 135.230469 208.035156 135.230469 C 211.925781 135.230469 215.445312 138.382812 215.445312 142.085938 L 215.445312 235.265625 C 215.445312 238.972656 211.738281 242.121094 208.035156 242.121094 Z M 208.035156 242.121094 " fill-opacity="1" fill-rule="nonzero"/><path fill="#ffffff" d="M 262.683594 242.121094 C 258.792969 242.121094 256.199219 238.972656 256.199219 235.265625 L 256.199219 142.085938 C 256.199219 138.195312 258.792969 135.230469 262.683594 135.230469 C 266.574219 135.230469 269.167969 138.382812 269.167969 142.085938 L 269.167969 235.265625 C 269.167969 238.972656 266.390625 242.121094 262.683594 242.121094 Z M 262.683594 242.121094 " fill-opacity="1" fill-rule="nonzero"/><path fill="#ffffff" d="M 235.824219 217.851562 C 231.933594 217.851562 228.414062 214.703125 228.414062 211 L 228.414062 166.167969 C 228.414062 162.277344 231.933594 159.3125 235.824219 159.3125 C 239.710938 159.3125 243.234375 162.464844 243.234375 166.167969 L 243.234375 211 C 243.234375 214.890625 239.527344 217.851562 235.824219 217.851562 Z M 235.824219 217.851562 " fill-opacity="1" fill-rule="nonzero"/><path fill="#ffffff" d="M 290.472656 217.667969 C 286.582031 217.667969 283.988281 214.519531 283.988281 210.8125 L 283.988281 165.796875 C 283.988281 161.90625 286.582031 158.945312 290.472656 158.945312 C 294.363281 158.945312 296.953125 162.09375 296.953125 165.796875 L 296.953125 210.628906 C 296.953125 214.519531 294.175781 217.667969 290.472656 217.667969 Z M 290.472656 217.667969 " fill-opacity="1" fill-rule="nonzero"/><path fill="#ffffff" d="M 183.027344 217.851562 C 179.136719 217.851562 176.542969 214.703125 176.542969 211 L 176.542969 166.167969 C 176.542969 162.277344 179.136719 159.3125 183.027344 159.3125 C 186.917969 159.3125 189.511719 162.464844 189.511719 166.167969 L 189.511719 211 C 189.511719 214.890625 186.730469 217.851562 183.027344 217.851562 Z M 183.027344 217.851562 " fill-opacity="1" fill-rule="nonzero"/></svg>