<svg xmlns="http://www.w3.org/2000/svg" xmlns:xlink="http://www.w3.org/1999/xlink" width="500" zoomAndPan="magnify" viewBox="0 0 375 374.999991" height="500" preserveAspectRatio="xMidYMid meet" version="1.0"><defs><clipPath id="id1"><path d="M 217 194 L 301 194 L 301 332.660156 L 217 332.660156 Z M 217 194 " clip-rule="nonzero"/></clipPath><clipPath id="id2"><path d="M 54 42.410156 L 321 42.410156 L 321 144 L 54 144 Z M 54 42.410156 " clip-rule="nonzero"/></clipPath><clipPath id="id3"><path d="M 74 194 L 158 194 L 158 332.660156 L 74 332.660156 Z M 74 194 " clip-rule="nonzero"/></clipPath></defs><rect x="-37.5" width="450" fill="#ffffff" y="-37.499999" height="449.999989" fill-opacity="1"/><rect x="-37.5" width="450" fill="#ffffff" y="-37.499999" height="449.999989" fill-opacity="1"/><rect x="-37.5" width="450" fill="#545454" y="-37.499999" height="449.999989" fill-opacity="1"/><path fill="#d9d9d9" d="M 68.648438 148.304688 L 52.710938 141.386719 C 50.902344 146.257812 49.28125 151.230469 47.863281 156.292969 L 63.410156 162.042969 C 64.996094 157.347656 66.742188 152.765625 68.648438 148.304688 Z M 68.648438 148.304688 " fill-opacity="1" fill-rule="nonzero"/><path fill="#d9d9d9" d="M 66.894531 289.210938 C 67.230469 289.210938 67.550781 289.152344 67.878906 289.113281 L 61.441406 273.613281 C 59.390625 275.25 58.140625 277.738281 58.140625 280.457031 C 58.140625 285.28125 62.070312 289.210938 66.894531 289.210938 Z M 66.894531 289.210938 " fill-opacity="1" fill-rule="nonzero"/><path fill="#d9d9d9" d="M 66.894531 294.035156 C 59.410156 294.035156 53.316406 287.945312 53.316406 280.457031 C 53.316406 275.773438 55.710938 271.527344 59.546875 269.058594 L 56.546875 261.832031 C 49.816406 265.570312 45.554688 272.617188 45.554688 280.457031 C 45.554688 292.226562 55.125 301.800781 66.894531 301.800781 C 68.914062 301.800781 70.886719 301.511719 72.792969 300.960938 L 69.78125 293.707031 C 68.84375 293.914062 67.878906 294.035156 66.894531 294.035156 Z M 66.894531 294.035156 " fill-opacity="1" fill-rule="nonzero"/><path fill="#d9d9d9" d="M 54.679688 257.324219 L 52.996094 253.273438 C 50.539062 247.351562 50.320312 240.753906 52.34375 234.640625 C 52.074219 210.617188 55.402344 187.585938 61.90625 166.632812 L 46.605469 160.976562 C 38.304688 193.613281 37.992188 229.53125 46.445312 264.128906 C 48.65625 261.359375 51.4375 259.03125 54.679688 257.324219 Z M 54.679688 257.324219 " fill-opacity="1" fill-rule="nonzero"/><path fill="#d9d9d9" d="M 322.402344 234.640625 C 324.425781 240.753906 324.207031 247.347656 321.75 253.273438 L 320.070312 257.324219 C 323.304688 259.03125 326.089844 261.359375 328.304688 264.128906 C 336.753906 229.53125 336.445312 193.613281 328.144531 160.976562 L 312.84375 166.632812 C 319.34375 187.585938 322.671875 210.617188 322.402344 234.640625 Z M 322.402344 234.640625 " fill-opacity="1" fill-rule="nonzero"/><path fill="#d9d9d9" d="M 311.335938 162.046875 L 326.882812 156.296875 C 325.460938 151.234375 323.839844 146.261719 322.03125 141.386719 L 306.09375 148.308594 C 308.003906 152.765625 309.75 157.347656 311.335938 162.046875 Z M 311.335938 162.046875 " fill-opacity="1" fill-rule="nonzero"/><path fill="#d9d9d9" d="M 309.902344 269.214844 C 309.902344 269.210938 309.90625 269.210938 309.90625 269.210938 L 314.734375 257.585938 L 317.292969 251.421875 C 319.351562 246.457031 319.503906 240.910156 317.714844 235.796875 C 314.59375 226.867188 310.023438 218.476562 303.917969 210.378906 L 251.632812 331.996094 C 262.351562 330.882812 272.015625 328.371094 280.886719 324.363281 C 285.75 322.167969 289.59375 318.136719 291.71875 313.015625 L 309.902344 269.222656 C 309.902344 269.214844 309.902344 269.214844 309.902344 269.214844 Z M 309.902344 269.214844 " fill-opacity="1" fill-rule="nonzero"/><path fill="#d9d9d9" d="M 57.027344 235.796875 C 55.242188 240.90625 55.390625 246.453125 57.453125 251.421875 L 60.011719 257.585938 L 64.839844 269.207031 C 64.839844 269.210938 64.839844 269.210938 64.839844 269.210938 C 64.839844 269.214844 64.839844 269.214844 64.839844 269.214844 L 83.027344 313.011719 C 85.152344 318.132812 89 322.160156 93.859375 324.359375 C 102.726562 328.367188 112.386719 330.875 123.109375 331.992188 L 70.828125 210.375 C 64.71875 218.476562 60.148438 226.863281 57.027344 235.796875 Z M 57.027344 235.796875 " fill-opacity="1" fill-rule="nonzero"/><path fill="#d9d9d9" d="M 313.300781 273.613281 L 306.867188 289.113281 C 307.191406 289.152344 307.515625 289.210938 307.847656 289.210938 C 312.675781 289.210938 316.601562 285.28125 316.601562 280.457031 C 316.601562 277.742188 315.355469 275.25 313.300781 273.613281 Z M 313.300781 273.613281 " fill-opacity="1" fill-rule="nonzero"/><path fill="#d9d9d9" d="M 318.195312 261.832031 L 315.195312 269.058594 C 319.035156 271.527344 321.425781 275.773438 321.425781 280.457031 C 321.425781 287.945312 315.332031 294.035156 307.847656 294.035156 C 306.863281 294.035156 305.898438 293.914062 304.957031 293.707031 L 301.945312 300.960938 C 303.847656 301.507812 305.824219 301.800781 307.847656 301.800781 C 319.613281 301.800781 329.183594 292.226562 329.183594 280.457031 C 329.1875 272.617188 324.929688 265.570312 318.195312 261.832031 Z M 318.195312 261.832031 " fill-opacity="1" fill-rule="nonzero"/><g clip-path="url(#id1)"><path fill="#d9d9d9" d="M 295.785156 200.699219 C 291.886719 196.535156 286.683594 194.289062 281.140625 194.289062 C 280 194.289062 278.851562 194.382812 277.691406 194.578125 C 270.945312 195.695312 265.242188 200.074219 262.429688 206.296875 L 219.171875 302.054688 C 216.113281 308.828125 216.707031 316.597656 220.75 322.847656 C 224.742188 329.007812 231.472656 332.679688 238.765625 332.679688 C 238.792969 332.679688 238.816406 332.679688 238.84375 332.679688 C 241.351562 332.667969 243.789062 332.570312 246.191406 332.433594 L 300.511719 206.082031 C 299.007812 204.277344 297.453125 202.480469 295.785156 200.699219 Z M 295.785156 200.699219 " fill-opacity="1" fill-rule="nonzero"/></g><g clip-path="url(#id2)"><path fill="#d9d9d9" d="M 304.148438 143.890625 L 320.292969 136.878906 C 314.5 122.433594 307 108.964844 297.839844 96.976562 C 270.558594 61.277344 232.359375 42.410156 187.371094 42.410156 C 142.386719 42.410156 104.191406 61.277344 76.90625 96.976562 C 67.742188 108.96875 60.242188 122.4375 54.453125 136.878906 L 70.597656 143.890625 C 78.308594 127.140625 88.296875 112.265625 100.367188 100.039062 C 124.164062 75.929688 154.25 63.1875 187.371094 63.1875 C 220.496094 63.1875 250.582031 75.929688 274.378906 100.039062 C 286.449219 112.265625 296.4375 127.140625 304.148438 143.890625 Z M 304.148438 143.890625 " fill-opacity="1" fill-rule="nonzero"/></g><g clip-path="url(#id3)"><path fill="#d9d9d9" d="M 112.316406 206.296875 C 109.507812 200.074219 103.800781 195.695312 97.054688 194.578125 C 90.257812 193.441406 83.65625 195.683594 78.960938 200.699219 C 77.292969 202.480469 75.738281 204.277344 74.234375 206.082031 L 128.554688 332.433594 C 130.957031 332.570312 133.394531 332.671875 135.90625 332.679688 C 135.929688 332.679688 135.957031 332.679688 135.980469 332.679688 C 143.273438 332.679688 150.003906 329.011719 153.996094 322.847656 C 158.042969 316.601562 158.632812 308.828125 155.574219 302.058594 Z M 112.316406 206.296875 " fill-opacity="1" fill-rule="nonzero"/></g></svg>